<svg width="800" height="1000" viewBox="0 0 800 1000" xmlns="http://www.w3.org/2000/svg">
  <rect width="800" height="1000" rx="40" fill="#0f172a"/>
  <circle cx="400" cy="340" r="220" fill="url(#grad)"/>
  <rect x="180" y="520" width="440" height="360" rx="40" fill="#1e293b"/>
  <ellipse cx="400" cy="320" rx="120" ry="150" fill="#f4c095"/>
  <path d="M285 330c20-120 190-130 220-10 10 40-20 100-80 120-60 20-150-10-140-110z" fill="#111827"/>
  <circle cx="345" cy="330" r="12" fill="#111827"/>
  <circle cx="455" cy="330" r="12" fill="#111827"/>
  <path d="M330 410c25 30 115 30 140 0" stroke="#8b5e3c" stroke-width="12" fill="none" stroke-linecap="round"/>
  <rect x="240" y="620" width="320" height="220" rx="32" fill="#111827"/>
  <rect x="268" y="650" width="120" height="20" rx="10" fill="#4f46e5"/>
  <rect x="268" y="690" width="180" height="16" rx="8" fill="#06b6d4"/>
  <rect x="268" y="724" width="140" height="16" rx="8" fill="#7c3aed"/>
  <rect x="268" y="758" width="100" height="16" rx="8" fill="#f8fafc"/>
  <rect x="520" y="180" width="120" height="24" rx="12" fill="#4f46e5"/>
  <rect x="520" y="220" width="90" height="16" rx="8" fill="#06b6d4"/>
  <defs>
    <linearGradient id="grad" x1="200" y1="140" x2="620" y2="560" gradientUnits="userSpaceOnUse">
      <stop offset="0%" stop-color="#4f46e5"/>
      <stop offset="100%" stop-color="#06b6d4"/>
    </linearGradient>
  </defs>
</svg>
